<?xml version="1.0" encoding="UTF-8"?>
<svg version="1.1" xmlns="http://www.w3.org/2000/svg" width="434" height="401">
<path d="M0 0 C0.64630371 0.20463867 1.29260742 0.40927734 1.95849609 0.62011719 C23.13446311 7.35815378 41.40674389 17.48323006 59 31 C59.91007812 31.67933594 60.82015625 32.35867187 61.7578125 33.05859375 C62.58023437 33.67863281 63.40265625 34.29867187 64.25 34.9375 C64.97703125 35.48277344 65.7040625 36.02804688 66.453125 36.58984375 C66.96359375 37.05519531 67.4740625 37.52054688 68 38 C68 38.66 68 39.32 68 40 C68.53625 40.20625 69.0725 40.4125 69.625 40.625 C72.91978009 42.53250426 75.59363628 45.04819384 78 48 C78 48.66 78 49.32 78 50 C78.66 50 79.32 50 80 50 C81.59398663 51.81775783 83.0530861 53.63171374 84.5 55.5625 C84.94069824 56.14604248 85.38139648 56.72958496 85.83544922 57.33081055 C94.53163152 68.97048231 101.86233715 80.82466588 108 94 C108.40057617 94.82894775 108.80115234 95.65789551 109.21386719 96.51196289 C124.51690533 128.85280826 128.58569802 172.15259704 120 207 C119.79020508 207.91861816 119.58041016 208.83723633 119.36425781 209.78369141 C113.4983435 235.05948256 102.46291944 258.71261808 85.85546875 278.734375 C83.51134863 281.59666904 81.36279097 284.58220047 79.2265625 287.6015625 C78.82179688 288.06304687 78.41703125 288.52453125 78 289 C77.34 289 76.68 289 76 289 C76 289.66 76 290.32 76 291 C74.625 292.625 74.625 292.625 73 294 C72.34 294 71.68 294 71 294 C71 294.66 71 295.32 71 296 C69.390625 297.65625 69.390625 297.65625 67.25 299.5 C66.55390625 300.1084375 65.8578125 300.716875 65.140625 301.34375 C63.15539208 302.87976963 61.28127955 303.9723966 59 305 C59 305.66 59 306.32 59 307 C57.68 307.33 56.36 307.66 55 308 C55 308.66 55 309.32 55 310 C52.86623004 311.6217878 50.74302363 313.10443797 48.5 314.5625 C47.81929443 315.00650146 47.13858887 315.45050293 46.43725586 315.90795898 C44.3003959 317.28653878 42.1527125 318.64632926 40 320 C39.37496582 320.39703125 38.74993164 320.7940625 38.10595703 321.203125 C12.06161438 337.51837961 -19.33414052 345.40056331 -49.87548828 345.31567383 C-52.23387316 345.31252156 -54.59098821 345.33605261 -56.94921875 345.36132812 C-71.03177816 345.41999859 -84.76786283 343.47732971 -98.375 339.8125 C-99.14118652 339.60818359 -99.90737305 339.40386719 -100.69677734 339.19335938 C-129.98737955 331.01262045 -129.98737955 331.01262045 -138 323 C-138.66476796 317.4159491 -136.91814355 314.55959929 -134 310 C-133.34 310 -132.68 310 -132 310 C-131.67 309.01 -131.34 308.02 -131 307 C-125.84120333 306.5891923 -122.311563 307.95157829 -117.8125 310.25 C-116.47416819 310.90025647 -115.13431252 311.54738573 -113.79296875 312.19140625 C-112.817229 312.66151123 -112.817229 312.66151123 -111.82177734 313.14111328 C-96.92836532 320.16269242 -80.13340503 322.5092287 -64 325 C-64 323.68 -64 322.36 -64 321 C-62.02 320.67 -60.04 320.34 -58 320 C-58.33 308.78 -58.66 297.56 -59 286 C-60.65 285.34 -62.3 284.68 -64 284 C-64 282.35 -64 280.7 -64 279 C-64.96550781 279.04511719 -65.93101562 279.09023438 -66.92578125 279.13671875 C-71.54869251 279.13091253 -75.7509558 278.02745942 -80.1875 276.8125 C-81.02539062 276.58618896 -81.86328125 276.35987793 -82.7265625 276.12670898 C-96.62874674 272.26156974 -109.31754828 266.25540706 -120.61328125 257.22265625 C-123.7855478 255.59758353 -125.57834172 256.27227611 -129 257 C-129.92051147 256.62609131 -129.92051147 256.62609131 -130.85961914 256.24462891 C-133.23268086 255.72174986 -133.23268086 255.72174986 -135.47363281 257.90600586 C-136.37436523 258.83292236 -137.27509766 259.75983887 -138.203125 260.71484375 C-138.6857782 261.20457169 -139.1684314 261.69429962 -139.66571045 262.1988678 C-141.20591635 263.76708227 -142.72785304 265.3517703 -144.25 266.9375 C-145.29050966 268.00308413 -146.33216334 269.06755246 -147.375 270.13085938 C-149.93007226 272.74108511 -152.46903497 275.36636852 -155 278 C-154.67 278.9075 -154.34 279.815 -154 280.75 C-153 284 -153 284 -153 288 C-151.43695075 289.56600946 -151.43695075 289.56600946 -149.4375 290.875 C-147.5078125 292.43359375 -147.5078125 292.43359375 -146 294 C-145.63929338 299.65107039 -149.16695864 304.52937904 -152.4375 308.9375 C-154.82252572 310.55931749 -156.14003608 310.40118938 -159 310 C-161.38033349 308.32395994 -163.42334135 306.69339142 -165.5625 304.75 C-166.17528809 304.20569336 -166.78807617 303.66138672 -167.41943359 303.10058594 C-169.29606822 301.4174838 -171.15069208 299.71304313 -173 298 C-173.53641113 297.50886719 -174.07282227 297.01773437 -174.62548828 296.51171875 C-183.20486771 288.58473248 -190.47854903 279.6896736 -197 270 C-197 269.34 -197 268.68 -197 268 C-197.66 268 -198.32 268 -199 268 C-223.08673402 225.06303661 -233.75492604 181.10493242 -224 132 C-223.80132324 130.95295898 -223.80132324 130.95295898 -223.59863281 129.88476562 C-215.84351905 89.73843823 -190.97945355 55.27699869 -160.25390625 29.23046875 C-158 28 -158 28 -155.3828125 28.140625 C-151.8013889 29.43228597 -149.88820325 31.818788 -148 35 C-146.62470742 38.37984638 -145.62678427 41.54860548 -146.5625 45.1875 C-148 47 -148 47 -150.5 49.375 C-153.1885165 52.19794233 -154.04497296 54.26671249 -155 58 C-154.4946875 58.48210937 -153.989375 58.96421875 -153.46875 59.4609375 C-152.49421875 60.40839844 -152.49421875 60.40839844 -151.5 61.375 C-150.8503125 62.00148438 -150.200625 62.62796875 -149.53125 63.2734375 C-148 65 -148 65 -148 67 C-147.34 67 -146.68 67 -146 67 C-146 67.66 -146 68.32 -146 69 C-145.34 69 -144.68 69 -144 69 C-144 69.66 -144 70.32 -144 71 C-143.34 71 -142.68 71 -142 71 C-140.375 72.375 -140.375 72.375 -139 74 C-139 74.66 -139 75.32 -139 76 C-138.38125 76.28875 -137.7625 76.5775 -137.125 76.875 C-135 78 -135 78 -133 80 C-132.030625 79.835 -131.06125 79.67 -130.0625 79.5 C-127 79 -127 79 -124 81 C-123.2471875 80.443125 -122.494375 79.88625 -121.71875 79.3125 C-105.38343956 67.57645172 -84.68747943 56.10054437 -64 57 C-64 55.35 -64 53.7 -64 52 C-61.525 51.505 -61.525 51.505 -59 51 C-58.67 39.78 -58.34 28.56 -58 17 C-59.98 16.34 -61.96 15.68 -64 15 C-64 14.34 -64 13.68 -64 13 C-64.53625 13.10957031 -65.0725 13.21914063 -65.625 13.33203125 C-66.40875 13.49058594 -67.1925 13.64914063 -68 13.8125 C-68.92167969 14.00070313 -69.84335938 14.18890625 -70.79296875 14.3828125 C-73.01784111 14.81098526 -75.25069569 15.19887882 -77.48828125 15.5546875 C-91.54175744 17.88018611 -105.265711 22.08986402 -118.11035156 28.28686523 C-120 29 -120 29 -122.8125 28.625 C-126.43237125 25.93595278 -128.58928025 23.0980934 -129.46875 18.60546875 C-129.71872337 16.4008425 -129.87529557 14.21435381 -130 12 C-124.53928869 8.30519499 -119.14668179 5.6311592 -112.9375 3.4375 C-111.68271851 2.99035645 -111.68271851 2.99035645 -110.40258789 2.53417969 C-107.94096145 1.67081371 -105.4730391 0.83004223 -103 0 C-101.7934375 -0.40605469 -100.586875 -0.81210937 -99.34375 -1.23046875 C-68.54322214 -10.44943408 -30.51222787 -10.06800785 0 0 Z M-43 13 C-43 13.99 -43 14.98 -43 16 C-44.65 16.33 -46.3 16.66 -48 17 C-48 28.22 -48 39.44 -48 51 C-46.35 51.33 -44.7 51.66 -43 52 C-42.67 53.65 -42.34 55.3 -42 57 C-40.1128125 57.32871094 -40.1128125 57.32871094 -38.1875 57.6640625 C-16.7093666 61.56936947 1.16144117 69.36435416 19 82 C19.99 81.34 20.98 80.68 22 80 C23.67542976 80.28604898 25.34385343 80.61781233 27 81 C27.66 80.67 28.32 80.34 29 80 C29 79.34 29 78.68 29 78 C29.66 78 30.32 78 31 78 C32.66666667 76.66666667 32.66666667 76.66666667 34 75 C34 74.34 34 73.68 34 73 C34.66 73 35.32 73 36 73 C36 72.34 36 71.68 36 71 C36.66 71 37.32 71 38 71 C39.66666667 69.66666667 39.66666667 69.66666667 41 68 C41 67.34 41 66.68 41 66 C41.66 66 42.32 66 43 66 C43 65.34 43 64.68 43 64 C43.66 64 44.32 64 45 64 C47.83255116 62.00179441 47.83255116 62.00179441 50 59 C49.91832511 55.42823885 49.91832511 55.42823885 49 52 C49 50.68 49 49.36 49 48 C45.71195941 44.86629601 41.76837255 42.52270362 38 40 C37.00871094 39.28457031 36.01742187 38.56914063 34.99609375 37.83203125 C13.90174039 23.20833843 -16.92188292 11.99496101 -43 13 Z M-169.0859375 66.65234375 C-173.28920172 69.61178488 -176.06858776 73.84351996 -179 78 C-179.7115625 79.0003125 -180.423125 80.000625 -181.15625 81.03125 C-195.83221232 102.73513794 -208.46019037 131.22984329 -207 158 C-206.34 158 -205.68 158 -205 158 C-204.67 159.65 -204.34 161.3 -204 163 C-192.78 163 -181.56 163 -170 163 C-169.67 161.35 -169.34 159.7 -169 158 C-166.525 157.505 -166.525 157.505 -164 157 C-163.85304687 156.04222656 -163.70609375 155.08445312 -163.5546875 154.09765625 C-160.43493946 135.09445783 -153.62051548 118.21129737 -142.5390625 102.3984375 C-140.81997846 100.19442127 -140.81997846 100.19442127 -141 98 C-140.34 98 -139.68 98 -139 98 C-139.33 97.236875 -139.66 96.47375 -140 95.6875 C-141 93 -141 93 -141 90 C-140.01 89.505 -140.01 89.505 -139 89 C-140.36323743 86.9600281 -140.36323743 86.9600281 -142 85 C-142.66 85 -143.32 85 -144 85 C-144 84.34 -144 83.68 -144 83 C-144.66 83 -145.32 83 -146 83 C-146 82.34 -146 81.68 -146 81 C-146.66 81 -147.32 81 -148 81 C-148.20625 80.46375 -148.4125 79.9275 -148.625 79.375 C-150.53250426 76.08021991 -153.04819384 73.40636372 -156 71 C-156.66 71 -157.32 71 -158 71 C-158 70.34 -158 69.68 -158 69 C-158.66 69 -159.32 69 -160 69 C-160 68.34 -160 67.68 -160 67 C-163.22272189 64.55073136 -165.52017531 64.89980957 -169.0859375 66.65234375 Z M57 65 C55.09014573 66.12665141 55.09014573 66.12665141 53.3125 67.8125 C52.68988281 68.35519531 52.06726563 68.89789063 51.42578125 69.45703125 C49.77377795 70.89467262 49.77377795 70.89467262 50 73 C49.34 73 48.68 73 48 73 C46.33333333 74.33333333 46.33333333 74.33333333 45 76 C45 76.66 45 77.32 45 78 C44.34 78 43.68 78 43 78 C41.26111909 79.71885317 41.26111909 79.71885317 39.5 81.875 C37.71066742 83.99035504 35.95980876 86.04019124 34 88 C34.31165441 90.00349261 34.64763503 92.00326516 35 94 C34.5625 96.875 34.5625 96.875 34 99 C34.66 99 35.32 99 36 99 C36.27158936 99.73903564 36.54317871 100.47807129 36.82299805 101.23950195 C37.93822595 103.85511737 39.18007754 105.86758462 40.83203125 108.16796875 C44.10824761 112.9783259 46.45076604 117.95278827 48.6875 123.3125 C49.27156616 124.69671143 49.27156616 124.69671143 49.86743164 126.10888672 C52.56336398 132.63117422 54.73478576 139.04132167 56 146 C56.20109375 147.04414063 56.4021875 148.08828125 56.609375 149.1640625 C57.09806057 151.77258682 57.5620434 154.38256527 58 157 C59.65 157.33 61.3 157.66 63 158 C63.33 159.65 63.66 161.3 64 163 C75.22 163 86.44 163 98 163 C98.33 161.35 98.66 159.7 99 158 C100.32 158 101.64 158 103 158 C103.28483076 150.3170161 102.59358829 143.35969292 100.875 135.875 C100.64981689 134.87581543 100.42463379 133.87663086 100.19262695 132.84716797 C94.78866963 109.70111285 84.98477953 88.50842818 70 70 C69.195625 68.989375 68.39125 67.97875 67.5625 66.9375 C67.046875 66.298125 66.53125 65.65875 66 65 C65.071875 65.185625 64.14375 65.37125 63.1875 65.5625 C60 66 60 66 57 65 Z M-116 96 C-114.7251791 98.84383123 -113.54862922 101.13754018 -111 103 C-107.50379262 102.55923881 -105.38667452 100.9768888 -102.625 98.875 C-88.78253959 89.00490011 -74.49659365 85.04552498 -58 82 C-58 79.03 -58 76.06 -58 73 C-79.66899309 72.2664143 -99.31725 83.29130459 -116 96 Z M-48 73 C-48 75.97 -48 78.94 -48 82 C-47.04222656 82.14695312 -46.08445313 82.29390625 -45.09765625 82.4453125 C-26.81085879 85.4466871 -11.6274335 91.47783172 3 103 C6.36720387 101.60667426 7.9859524 100.0210714 10 97 C-5.99131808 83.14577051 -26.40415322 73 -48 73 Z M17 105 C15.35 106.65 13.7 108.3 12 110 C13.2941579 113.60470323 14.84609871 116.29600361 17.1875 119.3125 C24.61405791 129.73138709 28.63538631 141.51084319 31 154 C31.38996824 155.77213416 31.78512267 157.54314215 32.1875 159.3125 C32.455625 160.529375 32.72375 161.74625 33 163 C35.64 163 38.28 163 41 163 C42.49687857 143.00003913 32.91724674 123.51601927 21 108 C18.86145359 106.12765448 18.86145359 106.12765448 17 105 Z M-125 106 C-139.13967098 120.72533782 -146.63392405 141.96421946 -148 162 C-147.01732141 163.20561184 -147.01732141 163.20561184 -145.15234375 163.09765625 C-143.1015625 163.06510417 -141.05078125 163.03255208 -139 163 C-138.90203125 162.45214844 -138.8040625 161.90429688 -138.703125 161.33984375 C-135.76884545 145.78310305 -131.7183051 131.07502505 -122.24609375 118.15625 C-119.80673116 115.37405989 -119.80673116 115.37405989 -120 113 C-119.34 113 -118.68 113 -118 113 C-118.55774272 109.76509224 -119.37211508 108.02144994 -122 106 C-122.99 106 -123.98 106 -125 106 Z M-89.3125 136.9375 C-90.56512225 138.607663 -91.79691528 140.29380713 -93 142 C-93.63421875 142.8971875 -93.63421875 142.8971875 -94.28125 143.8125 C-100.91655922 154.26813877 -101.24253132 167.16795302 -99.56640625 179.08203125 C-97.90665658 186.28802517 -94.25778541 192.02942364 -90 198 C-89.4740625 198.76441406 -88.948125 199.52882813 -88.40625 200.31640625 C-87.9421875 200.87199219 -87.478125 201.42757812 -87 202 C-86.34 202 -85.68 202 -85 202 C-85 202.66 -85 203.32 -85 204 C-82.76499128 205.72481414 -82.76499128 205.72481414 -79.9375 207.4375 C-78.99777344 208.03433594 -78.05804688 208.63117188 -77.08984375 209.24609375 C-65.13623244 216.03139271 -52.68501666 217.25653775 -39.48828125 214.12109375 C-25.65002488 209.67363622 -15.93710254 200.53214255 -9.30859375 187.734375 C-4.00994957 174.75194197 -4.1569246 161.07423912 -9.4296875 148.1484375 C-11.78381148 143.42847749 -14.42653113 138.90651257 -18 135 C-18.66 135 -19.32 135 -20 135 C-20 134.34 -20 133.68 -20 133 C-32.06250568 123.06445788 -44.40185167 120.03217311 -59.69042969 120.7734375 C-71.3535335 121.91755593 -81.95135082 128.02308081 -89.3125 136.9375 Z M65 173 C62.7226499 175.81509993 62.7226499 175.81509993 63 179 C61.35 179 59.7 179 58 179 C57.78085937 180.258125 57.56171875 181.51625 57.3359375 182.8125 C53.43063053 204.2906334 45.63564584 222.16144117 33 240 C33.66 240.66 34.32 241.32 35 242 C34.66174194 243.61757202 34.66174194 243.61757202 34.31665039 245.26782227 C33.59665747 249.07121683 33.59665747 249.07121683 35.99780273 251.90600586 C36.9561031 252.86304893 37.93626828 253.7985398 38.93359375 254.71484375 C39.44551773 255.21544815 39.95744171 255.71605255 40.48487854 256.23182678 C42.11789481 257.82019956 43.77650114 259.37846488 45.4375 260.9375 C46.55194006 262.01179756 47.6645936 263.08795168 48.77539062 264.16601562 C51.49669642 266.79930438 54.24129686 269.40593884 57 272 C58.36125 271.505 58.36125 271.505 59.75 271 C63 270 63 270 67 270 C74.68660914 262.93067113 79.97391148 253.04601459 85 244 C85.928125 242.33324219 85.928125 242.33324219 86.875 240.6328125 C96.4442417 222.47688518 104.71856472 199.81372834 103 179 C101.68 179 100.36 179 99 179 C98.7834375 177.7934375 98.7834375 177.7934375 98.5625 176.5625 C98.25864751 174.07896294 98.25864751 174.07896294 97 173 C94.64775408 172.87446573 92.32639257 172.81140328 89.97265625 172.796875 C89.26854111 172.79117493 88.56442596 172.78547485 87.838974 172.77960205 C86.34684762 172.77014037 84.85470024 172.76361344 83.36254883 172.75976562 C81.0753145 172.75005441 78.78897651 172.71904175 76.50195312 172.6875 C75.05469286 172.68097075 73.60742614 172.67571997 72.16015625 172.671875 C71.47365494 172.6595282 70.78715363 172.6471814 70.07984924 172.63446045 C67.94037738 172.6098364 67.94037738 172.6098364 65 173 Z M-204 174 C-204.33 175.32 -204.66 176.64 -205 178 C-205.99 178.495 -205.99 178.495 -207 179 C-206.08904085 209.47158359 -195.44444345 240.28504794 -176 264 C-175.53078125 264.65226562 -175.0615625 265.30453125 -174.578125 265.9765625 C-173.23915898 267.87489324 -173.23915898 267.87489324 -171 270 C-168.45769153 270.41679297 -168.45769153 270.41679297 -166 270 C-165.3699707 270.22727783 -164.73994141 270.45455566 -164.09082031 270.6887207 C-161.90540195 271.25704062 -161.90540195 271.25704062 -160.07714844 269.67651367 C-159.4277832 269.01369385 -158.77841797 268.35087402 -158.109375 267.66796875 C-157.40039062 266.95189453 -156.69140625 266.23582031 -155.9609375 265.49804688 C-155.23132813 264.73556641 -154.50171875 263.97308594 -153.75 263.1875 C-153.00492188 262.43662109 -152.25984375 261.68574219 -151.4921875 260.91210938 C-147.56990051 257.50925701 -147.56990051 257.50925701 -146 253 C-145.38125 252.773125 -144.7625 252.54625 -144.125 252.3125 C-141.31759229 250.57851288 -140.82612526 249.15429646 -140 246 C-140.31478446 244.66216607 -140.64587656 243.32796291 -141 242 C-140.01 240.515 -140.01 240.515 -139 239 C-139.70962891 238.10474609 -139.70962891 238.10474609 -140.43359375 237.19140625 C-153.82761327 219.61991475 -160.72750768 200.73679859 -164 179 C-165.65 179 -167.3 179 -169 179 C-169.495 176.525 -169.495 176.525 -170 174 C-181.22 174 -192.44 174 -204 174 Z M-147 174 C-146.6177698 195.92611393 -138.46581662 214.60278007 -124 231 C-122.02 229.35 -120.04 227.7 -118 226 C-119.34963718 222.12921316 -121.09935776 219.47013523 -123.6875 216.3125 C-131.7809672 205.36424619 -135.40814235 192.35818043 -137.4921875 179.0625 C-137.8295816 176.09510627 -137.8295816 176.09510627 -139 174 C-141.64 174 -144.28 174 -147 174 Z M33 174 C32.7525 175.175625 32.505 176.35125 32.25 177.5625 C28.49074333 194.3467868 24.13386282 208.56246382 13.234375 222.2109375 C11.73515707 223.95280605 11.73515707 223.95280605 12.3125 226.25 C12.539375 226.8275 12.76625 227.405 13 228 C13.66 228 14.32 228 15 228 C15 228.66 15 229.32 15 230 C15.99 230.33 16.98 230.66 18 231 C31.00341921 217.32973877 41.13379221 197.2269133 41.1875 178.1875 C41.14087754 176.79104617 41.08500087 175.39464397 41 174 C38.36 174 35.72 174 33 174 Z M-110 233 C-111.65 234.65 -113.3 236.3 -115 238 C-113.51697598 242.44907205 -109.91714499 244.74579392 -106 247 C-105.34 247 -104.68 247 -104 247 C-104 247.66 -104 248.32 -104 249 C-89.32314889 256.511547 -75.65402368 261.95912352 -59 263 C-59 260.03 -59 257.06 -59 254 C-60.30453125 253.76925781 -61.6090625 253.53851563 -62.953125 253.30078125 C-81.19416012 249.95530969 -94.69543286 243.20304476 -110 233 Z M3 233 C2.36835938 233.49628906 1.73671875 233.99257813 1.0859375 234.50390625 C-13.74281737 245.76435843 -29.57526397 251.70821614 -48 254 C-48 256.97 -48 259.94 -48 263 C-27.03569744 262.1116821 -6.31089032 254.55394743 9 240 C7.60667426 236.63279613 6.0210714 235.0140476 3 233 Z M17 255 C16.34 255.33 15.68 255.66 15 256 C15 256.66 15 257.32 15 258 C14.27296875 258.26425781 13.5459375 258.52851563 12.796875 258.80078125 C9.98110029 260.00810365 7.76032795 261.44066351 5.25 263.1875 C-7.6617006 271.50644804 -23.15949786 276.78327105 -38.40234375 278.5390625 C-41.80633761 278.6025001 -41.80633761 278.6025001 -43 280 C-43.04063832 281.66617115 -43.042721 283.33388095 -43 285 C-44.65 285.33 -46.3 285.66 -48 286 C-48 297.22 -48 308.44 -48 320 C-46.35 320 -44.7 320 -43 320 C-42.67 321.65 -42.34 323.3 -42 325 C-31.3223914 324.62269934 -21.32000225 322.64348037 -11 320 C-10.33097656 319.83016602 -9.66195312 319.66033203 -8.97265625 319.48535156 C7.81252764 315.08641755 24.07372083 307.34011286 38 297 C38.54575684 296.59797363 39.09151367 296.19594727 39.65380859 295.78173828 C43.12760159 293.22019523 46.57345575 290.62458708 50 288 C49.62875 287.278125 49.2575 286.55625 48.875 285.8125 C48 283 48 283 50 278 C42.41 270.41 34.82 262.82 27 255 C25.02 255.66 23.04 256.32 21 257 C18.75 256.0625 18.75 256.0625 17 255 Z " fill="#FFFFFF" transform="translate(266,34)"/>
</svg>
